<?xml version="1.0" encoding="UTF-8" standalone="no"?><!DOCTYPE svg PUBLIC "-//W3C//DTD SVG 1.1//EN" "http://www.w3.org/Graphics/SVG/1.1/DTD/svg11.dtd"><svg width="100%" height="100%" viewBox="0 0 336 336" version="1.1" xmlns="http://www.w3.org/2000/svg" xmlns:xlink="http://www.w3.org/1999/xlink" xml:space="preserve" xmlns:serif="http://www.serif.com/" style="fill-rule:evenodd;clip-rule:evenodd;stroke-linejoin:round;stroke-miterlimit:2;"><g id="Layer_2"><g id="Layer_1-2"><path d="M71.833,181.833c-8.666,-8.666 -27.375,-5.916 -32.25,10.667c-4.875,-15.5 -26.5,-18.958 -34.666,-8c-7.34,9.842 -6.304,23.732 2.416,32.375l29.417,29.458c1.578,1.424 4.005,1.424 5.583,0l29.459,-29.458c9.494,-9.664 9.494,-25.378 0,-35.042l0.041,0Z" style="fill:#0b9d4d;fill-rule:nonzero;"/><path d="M71.833,91.958c-8.333,-8.333 -25.916,-5.958 -31.541,9.042l-2.792,6.958l12.083,2.875c1.471,0.358 2.514,1.686 2.514,3.199c0,0.478 -0.104,0.951 -0.305,1.385l-7.875,16.666c-0.519,1.161 -1.688,1.902 -2.959,1.875c-0.474,0.005 -0.943,-0.095 -1.375,-0.291c-1.507,-0.776 -2.195,-2.586 -1.583,-4.167l6.167,-13l-11.834,-2.833c-0.918,-0.216 -1.696,-0.826 -2.125,-1.667c-0.394,-0.859 -0.394,-1.849 0,-2.708l5.292,-13.5c-8.125,-9.084 -23.792,-9.959 -30.458,-0.959c-7.34,9.842 -6.304,23.732 2.416,32.375l29.417,29.459c1.578,1.424 4.005,1.424 5.583,0l29.459,-29.459c9.606,-9.709 9.568,-25.586 -0.084,-35.25Z" style="fill:#d40000;fill-rule:nonzero;"/><path d="M71.649,270.203c-8.333,-8.334 -25.917,-5.959 -31.542,9.041l-2.791,6.959l12.083,2.875c1.47,0.357 2.514,1.685 2.514,3.198c0,0.478 -0.104,0.951 -0.306,1.385l-7.875,16.667c-0.518,1.16 -1.687,1.901 -2.958,1.875c-0.474,0.004 -0.943,-0.096 -1.375,-0.292c-1.508,-0.776 -2.195,-2.585 -1.583,-4.167l6.166,-13l-11.833,-2.833c-0.918,-0.216 -1.697,-0.826 -2.125,-1.667c-0.394,-0.859 -0.394,-1.849 0,-2.708l5.292,-13.5c-8.125,-9.083 -23.792,-9.958 -30.459,-0.958c-7.34,9.841 -6.303,23.732 2.417,32.375l29.417,29.458c1.578,1.424 4.005,1.424 5.583,0l29.458,-29.458c9.607,-9.71 9.569,-25.587 -0.083,-35.25Z" style="fill:#d40000;fill-rule:nonzero;"/><path d="M71.649,4.685c-8.333,-8.334 -25.917,-5.959 -31.542,9.041l-2.791,6.959l12.083,2.875c1.47,0.357 2.514,1.685 2.514,3.198c0,0.479 -0.104,0.951 -0.306,1.385l-7.875,16.667c-0.518,1.161 -1.687,1.902 -2.958,1.875c-0.474,0.004 -0.943,-0.096 -1.375,-0.292c-1.508,-0.776 -2.195,-2.585 -1.583,-4.167l6.166,-13l-11.833,-2.833c-0.918,-0.216 -1.697,-0.826 -2.125,-1.667c-0.394,-0.859 -0.394,-1.849 0,-2.708l5.292,-13.5c-8.125,-9.083 -23.792,-9.958 -30.459,-0.958c-7.34,9.841 -6.303,23.732 2.417,32.375l29.417,29.458c1.578,1.424 4.005,1.424 5.583,0l29.458,-29.458c9.607,-9.71 9.569,-25.586 -0.083,-35.25Z" style="fill:#d40000;fill-rule:nonzero;"/><rect x="91.667" y="266.595" width="108.333" height="68.447" style="fill:#8e0000;"/><path d="M109.556,318.667l0,-35.834l208.055,0l0,35.834l-208.055,0m-17.889,16.666l239.361,0c2.453,0 4.472,-1.881 4.472,-4.166l0,-60.834c0,-2.285 -2.019,-4.166 -4.472,-4.166l-239.361,0l0,69.166Z" style="fill:#d40000;fill-rule:nonzero;"/><rect x="91.667" y="179.125" width="108.333" height="69.167" style="fill:#0b9d4d;"/><path d="M109.556,231.5l0,-35.667l208.055,0l0,35.792l-208.055,0m-17.889,16.667l239.361,0c2.453,0 4.472,-1.881 4.472,-4.167l0,-60.792c0,-2.285 -2.019,-4.166 -4.472,-4.166l-239.361,0l0,69.125Z" style="fill:#d40000;fill-rule:nonzero;"/><rect x="91.667" y="89.167" width="108.333" height="69.167" style="fill:#bdac03;"/><path d="M109.556,141.667l0,-35.834l208.055,0l0,35.834l-208.055,0m-17.889,16.666l239.361,0c2.453,0 4.472,-1.881 4.472,-4.166l0,-60.834c0,-2.285 -2.019,-4.166 -4.472,-4.166l-239.361,0l0,69.166Z" style="fill:#d40000;fill-rule:nonzero;"/><rect x="91.667" y="-0.072" width="108.333" height="68.405" style="fill:#8e0000;"/><path d="M109.556,52.428l0,-35.833l208.055,0l0,35.833l-208.055,0m-17.889,16.667l239.361,0c2.453,0 4.472,-1.881 4.472,-4.167l0,-60.833c0,-2.286 -2.019,-4.167 -4.472,-4.167l-239.361,0l0,69.167Z" style="fill:#d40000;fill-rule:nonzero;"/></g></g></svg>